<svg xmlns="http://www.w3.org/2000/svg" xmlns:xlink="http://www.w3.org/1999/xlink" width="300" height="126" viewBox="0 0 300 126" fill="none"><g opacity="1"  transform="translate(0 0)  rotate(0)"><g opacity="1"  transform="translate(0 0)  rotate(0)"><path id="路径 1 (轮廓)" fill-rule="evenodd" style="fill:#2EC31C" opacity="1" d="M0,63.16l18.27,-44.57l44.73,-18.59l44.42,18.43l18.58,44.73l-18.58,44.57l-44.42,18.27l-44.57,-18.43zM23.02,102.98l39.99,16.53l39.83,-16.38l16.66,-39.97l-16.67,-40.14l-39.83,-16.52l-40.12,16.67l-16.39,39.98z"></path><path id="矩形 2" fill-rule="evenodd" style="fill:#2EC31C" opacity="1" d="M111.108 121.007C111.582 121.481 112.36 121.481 112.833 121.007L121.007 112.833C121.481 112.359 121.481 111.582 121.007 111.108L105.762 95.8627C105.288 95.3889 104.511 95.3889 104.037 95.8627L95.8627 104.037C95.389 104.511 95.389 105.288 95.8627 105.762L111.108 121.007Z"></path><path id="路径 1 (轮廓)" fill-rule="evenodd" style="fill:#42CA19" opacity="1" d="M6,63.14l16.53,-40.32l40.47,-16.82l40.18,16.67l16.82,40.47l-16.82,40.33l-40.18,16.53l-40.33,-16.67zM27.26,98.73l35.75,14.78l35.59,-14.64l14.9,-35.73l-14.91,-35.88l-35.59,-14.76l-35.86,14.9l-14.65,35.73z"></path><path id="路径 1 (轮廓)" fill-rule="evenodd" style="fill:#73DA11" opacity="1" d="M12,63.13l14.79,-36.09l36.21,-15.04l35.96,14.92l15.04,36.21l-15.04,36.08l-35.96,14.79l-36.08,-14.92zM31.51,94.49l31.5,13.02l31.37,-12.9l13.12,-31.48l-13.13,-31.62l-31.37,-13.01l-31.6,13.12l-12.91,31.5z"></path><path id="路径 1 (轮廓)" fill-rule="evenodd" style="fill:#A4EB09" opacity="1" d="M18,63.11l13.05,-31.83l31.95,-13.28l31.73,13.16l13.27,31.95l-13.27,31.84l-31.73,13.05l-31.84,-13.16zM35.75,90.24l27.26,11.27l27.14,-11.16l11.35,-27.24l-11.36,-27.36l-27.14,-11.25l-27.34,11.36l-11.17,27.24z"></path></g><g opacity="1"  transform="translate(136 18)  rotate(0)"><path id="文本 1" fill-rule="evenodd" style="fill:#808080" opacity="1" d="M11.1888,31h-9.92v-30h9.92zM38.4488,31h-10.17v-25.98h-13.02v-4.02h37.13l-2.24,4.02h-11.7z"></path><path  id="文本 1" style="fill:#383838; opacity:1;"></path><path id="文本 1" fill-rule="evenodd" fill="url(#linear_0)" opacity="1" d="M9.92,30h-9.92v-30h9.92zM37.18,30h-10.17v-25.98h-13.02v-4.02h37.13l-2.24,4.02h-11.7z"></path><path id="MEER" fill-rule="evenodd" style="fill:#808080" opacity="1" d="M44.5988,91h-9.17v-19.3l-8.5,19.3h-7.84l-8.4,-19.04v19.04h-9.42v-30h12.63l9.21,20.56l9.27,-20.56h12.22zM80.9988,87.09l-2.24,3.91h-30.09v-30h32.23l-2.29,3.91h-19.65v8.77h21.07l-2.24,3.96h-18.83v9.45zM117.409,87.09l-2.24,3.91h-30.0902v-30h32.2202l-2.29,3.91h-19.6502v8.77h21.0802l-2.24,3.96h-18.8402v9.45zM143.729,91l-6.98,-12.47h-4.94v12.47h-10.33v-30h21.59l-3.26,3.91h-8v9.71h11.26v-13.62h10.28v17.53h-5.45l6.72,12.47z"></path><path  id="MEER" style="fill:#383838; opacity:1;"></path><path id="MEER" fill-rule="evenodd" fill="url(#linear_1)" opacity="1" d="M43.33,90h-9.17v-19.3l-8.5,19.3h-7.84l-8.4,-19.04v19.04h-9.42v-30h12.63l9.21,20.56l9.27,-20.56h12.22zM79.73,86.09l-2.24,3.91h-30.09v-30h32.23l-2.29,3.91h-19.65v8.77h21.07l-2.24,3.96h-18.83v9.45zM116.14,86.09l-2.24,3.91h-30.09v-30h32.22l-2.29,3.91h-19.65v8.77h21.08l-2.24,3.96h-18.84v9.45zM142.46,90l-6.98,-12.47h-4.94v12.47h-10.33v-30h21.59l-3.26,3.91h-8v9.71h11.26v-13.62h10.28v17.53h-5.45l6.72,12.47z"></path><path id="矩形 1" fill-rule="evenodd" fill="url(#linear_2)" opacity="1" d="M1.69 49L162.31 49C163.24 49 164 48.24 164 47.31L164 42.69C164 41.76 163.24 41 162.31 41L1.69 41C0.76 41 0 41.76 0 42.69L0 47.31C0 48.24 0.76 49 1.69 49Z"></path></g></g><defs><linearGradient id="linear_0" x1="4.112903868459669%" y1="75.51022437770615%" x2="103.14516062728126%" y2="50.000016125725466%" gradientUnits="objectBoundingBox"><stop offset="0" stop-color="#7ADD10" stop-opacity="0.95" /><stop offset="1" stop-color="#31C41B" stop-opacity="0.95" /></linearGradient><linearGradient id="linear_1" x1="4.112903868459669%" y1="75.51022437770615%" x2="103.14516062728126%" y2="50.000016125725466%" gradientUnits="objectBoundingBox"><stop offset="0" stop-color="#7ADD10" stop-opacity="0.95" /><stop offset="1" stop-color="#31C41B" stop-opacity="0.95" /></linearGradient><linearGradient id="linear_2" x1="0%" y1="50%" x2="100%" y2="50%" gradientUnits="objectBoundingBox"><stop offset="0" stop-color="#84E00F" stop-opacity="1" /><stop offset="1" stop-color="#31C41B" stop-opacity="1" /></linearGradient></defs></svg>