<svg xmlns="http://www.w3.org/2000/svg" xmlns:xlink="http://www.w3.org/1999/xlink" width="126" height="126" viewBox="0 0 126 126" fill="none"><g opacity="1"  transform="translate(0 0)  rotate(0)"><path id="路径 1 (轮廓)" fill-rule="evenodd" style="fill:#2EC31C" opacity="1" d="M0,63.16l18.27,-44.57l44.73,-18.59l44.42,18.43l18.58,44.73l-18.58,44.57l-44.42,18.27l-44.57,-18.43zM23.02,102.98l39.99,16.53l39.83,-16.38l16.66,-39.97l-16.67,-40.14l-39.83,-16.52l-40.12,16.67l-16.39,39.98z"></path><path id="矩形 2" fill-rule="evenodd" style="fill:#2EC31C" opacity="1" d="M111.108 121.007C111.582 121.481 112.36 121.481 112.833 121.007L121.007 112.833C121.481 112.359 121.481 111.582 121.007 111.108L105.762 95.8627C105.288 95.3889 104.511 95.3889 104.037 95.8627L95.8627 104.037C95.389 104.511 95.389 105.288 95.8627 105.762L111.108 121.007Z"></path><path id="路径 1 (轮廓)" fill-rule="evenodd" style="fill:#42CA19" opacity="1" d="M6,63.14l16.53,-40.32l40.47,-16.82l40.18,16.67l16.82,40.47l-16.82,40.33l-40.18,16.53l-40.33,-16.67zM27.26,98.73l35.75,14.78l35.59,-14.64l14.9,-35.73l-14.91,-35.88l-35.59,-14.76l-35.86,14.9l-14.65,35.73z"></path><path id="路径 1 (轮廓)" fill-rule="evenodd" style="fill:#73DA11" opacity="1" d="M12,63.13l14.79,-36.09l36.21,-15.04l35.96,14.92l15.04,36.21l-15.04,36.08l-35.96,14.79l-36.08,-14.92zM31.51,94.49l31.5,13.02l31.37,-12.9l13.12,-31.48l-13.13,-31.62l-31.37,-13.01l-31.6,13.12l-12.91,31.5z"></path><path id="路径 1 (轮廓)" fill-rule="evenodd" style="fill:#A4EB09" opacity="1" d="M18,63.11l13.05,-31.83l31.95,-13.28l31.73,13.16l13.27,31.95l-13.27,31.84l-31.73,13.05l-31.84,-13.16zM35.75,90.24l27.26,11.27l27.14,-11.16l11.35,-27.24l-11.36,-27.36l-27.14,-11.25l-27.34,11.36l-11.17,27.24z"></path></g></svg>