<svg xmlns="http://www.w3.org/2000/svg" xmlns:xlink="http://www.w3.org/1999/xlink" width="300" height="126.00003051757812" viewBox="0 0 300 126.00003051757812" fill="none"><g opacity="1"  transform="translate(0 0)  rotate(0)"><g opacity="1"  transform="translate(0 0)  rotate(0)"><path id="路径 1 (轮廓)" fill-rule="evenodd" style="fill:#BDF24B" opacity="1" d="M0,63.16l18.27,-44.57l44.73,-18.59l44.42,18.43l18.58,44.73l-18.58,44.57l-44.42,18.27l-44.57,-18.43zM23.02,102.98l39.99,16.53l39.83,-16.38l16.66,-39.97l-16.67,-40.14l-39.83,-16.52l-40.12,16.67l-16.39,39.98z"></path><path id="矩形 2" fill-rule="evenodd" style="fill:#B9F23F" opacity="1" d="M93.8627 103.762L109.108 119.007C109.582 119.481 110.359 119.481 110.833 119.007L119.007 110.833C119.481 110.359 119.481 109.582 119.007 109.108L103.762 93.8627C103.288 93.3889 102.511 93.3889 102.037 93.8627L93.8627 102.037C93.3889 102.511 93.3889 103.288 93.8627 103.762Z"></path><path id="路径 1 (轮廓)" fill-rule="evenodd" style="fill:#B0E048" opacity="1" d="M6,63.14l16.53,-40.32l40.47,-16.82l40.18,16.67l16.82,40.47l-16.82,40.33l-40.18,16.53l-40.33,-16.67zM27.26,98.73l35.75,14.78l35.59,-14.64l14.9,-35.73l-14.91,-35.88l-35.59,-14.76l-35.86,14.9l-14.65,35.73z"></path><path id="路径 1 (轮廓)" fill-rule="evenodd" style="fill:#A5D63F" opacity="1" d="M12,63.13l14.79,-36.09l36.21,-15.04l35.95,14.92l15.05,36.21l-15.05,36.08l-35.95,14.79l-36.08,-14.92zM31.51,94.49l31.5,13.02l31.36,-12.9l13.13,-31.48l-13.14,-31.62l-31.36,-13.01l-31.6,13.12l-12.91,31.5z"></path><path id="路径 1 (轮廓)" fill-rule="evenodd" style="fill:#A2C752" opacity="1" d="M18,63.11l13.05,-31.83l31.95,-13.28l31.72,13.16l13.28,31.95l-13.28,31.84l-31.72,13.05l-31.84,-13.16zM35.75,90.24l27.26,11.27l27.13,-11.16l11.36,-27.24l-11.37,-27.36l-27.13,-11.25l-27.34,11.36l-11.17,27.24z"></path></g><g opacity="1"  transform="translate(138 18)  rotate(0)"><path id="文本 1" fill-rule="evenodd" style="fill:#FFFFFF" opacity="1" d="M11.31,30h-9.31v-30h9.31zM36.91,30h-9.55v-25.98h-12.23v-4.02h34.87l-2.1,4.02h-10.99z"></path><path id="文本 1" fill-rule="evenodd" style="fill:#B0E048" opacity="1" d="M9.31,30h-9.31v-30h9.31zM34.91,30h-9.55v-25.98h-12.23v-4.02h34.87l-2.1,4.02h-10.99z"></path><path id="MEER" fill-rule="evenodd" style="fill:#FFFFFF" opacity="1" d="M42.69,90h-8.61v-19.3l-7.98,19.3h-7.37l-7.89,-19.04v19.04h-8.84v-30h11.86l8.65,20.56l8.7,-20.56h11.48zM76.87,86.09l-2.11,3.91h-28.25v-30h30.26l-2.15,3.91h-18.45v8.77h19.79l-2.1,3.96h-17.69v9.45zM111.05,86.09l-2.1,3.91h-28.26v-30h30.27l-2.16,3.91h-18.45v8.77h19.79l-2.1,3.96h-17.69v9.45zM135.77,90l-6.55,-12.47h-4.64v12.47h-9.7v-30h20.27l-3.06,3.91h-7.51v9.71h10.57v-13.62h9.65v17.53h-5.11l6.31,12.47z"></path><path id="MEER" fill-rule="evenodd" style="fill:#B0E048" opacity="1" d="M40.69,90h-8.61v-19.3l-7.98,19.3h-7.37l-7.89,-19.04v19.04h-8.84v-30h11.86l8.65,20.56l8.7,-20.56h11.48zM74.87,86.09l-2.11,3.91h-28.25v-30h30.26l-2.15,3.91h-18.45v8.77h19.79l-2.1,3.96h-17.69v9.45zM109.05,86.09l-2.1,3.91h-28.26v-30h30.27l-2.16,3.91h-18.45v8.77h19.79l-2.1,3.96h-17.69v9.45zM133.77,90l-6.55,-12.47h-4.64v12.47h-9.7v-30h20.27l-3.06,3.91h-7.51v9.71h10.57v-13.62h9.65v17.53h-5.11l6.31,12.47z"></path><path id="矩形 1" fill-rule="evenodd" fill="url(#linear_0)" opacity="1" d="M0 49L154 49L154 41L0 41L0 49Z"></path></g></g><defs><linearGradient id="linear_0" x1="100%" y1="49.999999999999986%" x2="0%" y2="50%" gradientUnits="objectBoundingBox"><stop offset="0" stop-color="#FFFFFF" stop-opacity="1" /><stop offset="1" stop-color="#B0E048" stop-opacity="1" /></linearGradient></defs></svg>